# xmcd
#
# Track frame offsets: 
#        150
#        15390
#        31008
#        43780
#        59929
#        73540
#        85630
#        100416
#        117667
#        128645
#        143758
#        159953
#        172179
#        189422
#        203832
#        216592
#        232134
#        246851
#        263144
#        279329
#        293938
#        312179
#        328988
#        343847
#
# Disc length: 4794 seconds
#
# Revision: 3
# Processed by: cddbd v1.5.2PL0 Copyright (c) Steve Scherf et al.
# Submitted via: ExactAudioCopyFreeDBPlugin 1.0
#
DISCID=7412b818
DTITLE=Various Artist - Take Me To The River:  A Southern Soul Story,
DTITLE=1961-1977
DYEAR=2008
DGENRE=Soul
TTITLE0=Marcell Strong - Mumble in My Ear
TTITLE1=Denise LaSalle - Breaking Up Somebody's Home
TTITLE2=Al Green - Tired of Being Alone
TTITLE3=Spencer Wiggins - I Can't Be Satisified
TTITLE4=King Floyd - Groove Me
TTITLE5=Freddie North - She's All I Got
TTITLE6=Bobby Newsome - Jody, Come Back and Get Your Shoes
TTITLE7=Mel and Tim - Starting All Over Again
TTITLE8=Sam Dees - We Always Come Back Strong
TTITLE9=Frederick Knight - I've Been Lonely for So Long
TTITLE10=Luther Ingram - (If Loving You is Wrong) I Don't Want to Be R
TTITLE10=ight
TTITLE11=Ann Peebles - I'm Gonna Tear Your Playhouse Down
TTITLE12=Bobby Womack - I'm Through Trying to Prove My Love to You
TTITLE13=Millie Jackson - It Hurts So Good
TTITLE14=Quiet Elegance - You've Got My Mind Messed Up
TTITLE15=Bobby Patterson - I Get My Groove from You
TTITLE16=Tommie Young - Take Time to Know Him
TTITLE17=George Jackson - How Can I Get Next to You
TTITLE18=The Soul Children - I'll Be the Other Woman
TTITLE19=Clarence Carter - Heartbreak Woman
TTITLE20=Chet Davenport - Take One Step (I'll Take Two)
TTITLE21=Al Green - Take Me to the River
TTITLE22=Tommy Tate - If You Got to Love Somebody
TTITLE23=Geater Davis - I'll Play the Blues for You
EXTD=
EXTT0=
EXTT1=
EXTT2=
EXTT3=
EXTT4=
EXTT5=
EXTT6=
EXTT7=
EXTT8=
EXTT9=
EXTT10=
EXTT11=
EXTT12=
EXTT13=
EXTT14=
EXTT15=
EXTT16=
EXTT17=
EXTT18=
EXTT19=
EXTT20=
EXTT21=
EXTT22=
EXTT23=
PLAYORDER=
